<svg width="20" height="20" viewBox="0 0 20 20" fill="none" xmlns="http://www.w3.org/2000/svg">
<path d="M5.97917 18.3125C5.5625 18.3125 5.20833 18.1667 4.91667 17.875C4.625 17.5834 4.47917 17.2292 4.47917 16.8125C4.47917 16.3959 4.625 16.0417 4.91667 15.75C5.20833 15.4584 5.5625 15.3125 5.97917 15.3125C6.39583 15.3125 6.75 15.4584 7.04167 15.75C7.33333 16.0417 7.47917 16.3959 7.47917 16.8125C7.47917 17.2292 7.33333 17.5834 7.04167 17.875C6.75 18.1667 6.39583 18.3125 5.97917 18.3125ZM14.3125 18.3125C13.8958 18.3125 13.5417 18.1667 13.25 17.875C12.9583 17.5834 12.8125 17.2292 12.8125 16.8125C12.8125 16.3959 12.9583 16.0417 13.25 15.75C13.5417 15.4584 13.8958 15.3125 14.3125 15.3125C14.7292 15.3125 15.0833 15.4584 15.375 15.75C15.6667 16.0417 15.8125 16.3959 15.8125 16.8125C15.8125 17.2292 15.6667 17.5834 15.375 17.875C15.0833 18.1667 14.7292 18.3125 14.3125 18.3125ZM4.89583 4.56252L7.1875 9.31252H13.1875L15.7917 4.56252H4.89583ZM4.27083 3.31252H16.5417C16.8611 3.31252 17.1042 3.45835 17.2708 3.75002C17.4375 4.04169 17.4375 4.33335 17.2708 4.62502L14.4583 9.68752C14.3056 9.95141 14.1076 10.1632 13.8646 10.3229C13.6215 10.4827 13.3542 10.5625 13.0625 10.5625H6.75L5.58333 12.7292H15.8125V13.9792H5.77083C5.1875 13.9792 4.76736 13.7847 4.51042 13.3959C4.25347 13.007 4.25694 12.5695 4.52083 12.0834L5.85417 9.62502L2.6875 2.91669H1.0625V1.66669H3.5L4.27083 3.31252ZM7.1875 9.31252H13.1875H7.1875Z" fill="white"/>
</svg>
